<svg xmlns="http://www.w3.org/2000/svg" id="Camada_1" data-name="Camada 1" viewBox="0 0 512 512"><defs><style>      .cls-1 {        fill: #78b3a8;      }      .cls-2 {        fill: #fefdf3;      }    </style></defs><rect class="cls-1" x="0" width="512" height="512" rx="95.05" ry="95.05"></rect><g><path class="cls-2" d="M118.92,138.61c3.73,3.71,5.81,8.76,5.8,14.02l.32,43.48c.01,1.51-1.2,2.74-2.71,2.75-.01,0-.03,0-.04,0l-43.48-.32c-10.95,0-19.83-8.86-19.84-19.81,0-10.95,8.86-19.83,19.81-19.84l6.08-.21.22-6.11c.03-10.95,8.92-19.8,19.87-19.77,5.24.01,10.27,2.1,13.97,5.81Z"></path><path class="cls-2" d="M408.01,134.15c10.72-.03,19.43,8.64,19.46,19.36l.21,5.98,5.95.2c10.72,0,19.41,8.7,19.4,19.43,0,10.72-8.7,19.41-19.43,19.4l-42.57.31s-.03,0-.04,0c-1.48-.01-2.67-1.22-2.66-2.7l.31-42.57c-.02-5.15,2.03-10.09,5.68-13.72,3.63-3.63,8.55-5.68,13.68-5.69Z"></path><path class="cls-2" d="M286.72,207.41c-3.81-4.35-7.99-8.37-12.47-12.02-5.59-4.56-11.65-8.54-18.11-11.87-6.46,3.32-12.53,7.31-18.11,11.87,6.44,2.34,12.51,5.44,18.11,9.17,4.46,2.97,8.62,6.35,12.44,10.09,15.86,15.51,25.71,37.13,25.71,61.01s-9.86,45.5-25.71,61.01c-3.82,3.74-7.98,7.11-12.44,10.09-5.61,3.74-11.68,6.83-18.11,9.17-5.67,2.06-11.62,3.54-17.77,4.37-3.71.5-7.5.75-11.35.75-47.08,0-85.39-38.3-85.39-85.39s38.3-85.39,85.39-85.39c3.84,0,7.63.25,11.35.75,5.55-5.45,11.62-10.36,18.14-14.64-9.35-2.78-19.25-4.27-29.49-4.27-57.1,0-103.55,46.45-103.55,103.55s46.45,103.55,103.55,103.55c10.24,0,20.14-1.5,29.49-4.27,6.18-1.84,12.11-4.24,17.74-7.14,6.46-3.32,12.53-7.31,18.11-11.87,4.48-3.66,8.65-7.68,12.47-12.02,16.01-18.23,25.74-42.12,25.74-68.25s-9.72-50.01-25.74-68.25Z"></path><path class="cls-2" d="M303.38,172.11c-10.24,0-20.14,1.5-29.48,4.27-6.18,1.83-12.11,4.24-17.75,7.14-6.46,3.32-12.53,7.31-18.11,11.87-4.48,3.66-8.65,7.68-12.47,12.02-16.01,18.23-25.74,42.13-25.74,68.25s9.72,50.02,25.74,68.25c6.44-1.57,12.53-4.03,18.14-7.23-15.86-15.51-25.72-37.14-25.72-61.02s9.86-45.51,25.72-61.02c3.81-3.73,7.98-7.11,12.44-10.08,5.61-3.74,11.68-6.83,18.11-9.17,5.67-2.06,11.62-3.55,17.78-4.36,3.71-.5,7.49-.75,11.34-.75,47.09,0,85.39,38.3,85.39,85.39s-38.3,85.39-85.39,85.39c-3.84,0-7.63-.25-11.34-.75-6.16-.82-12.11-2.3-17.78-4.37-6.44-2.34-12.51-5.44-18.11-9.17-5.61,3.74-11.68,6.83-18.11,9.17,5.59,4.56,11.65,8.54,18.11,11.87,5.64,2.9,11.58,5.3,17.75,7.14,9.35,2.78,19.25,4.27,29.48,4.27,57.1,0,103.55-46.45,103.55-103.55s-46.45-103.55-103.55-103.55Z"></path></g></svg>