<svg xmlns="http://www.w3.org/2000/svg" id="Camada_1" data-name="Camada 1" viewBox="0 0 512 512"><defs><style>      .cls-1 {        fill: #78b3a8;      }      .cls-2 {        fill: #fefdf3;      }    </style></defs><rect class="cls-1" x="0" width="512" height="512" rx="95.05" ry="95.05"></rect><path class="cls-2" d="M372.29,251.16v116.29c0,5.35-4.34,9.69-9.69,9.69h-213.2c-5.35,0-9.69-4.34-9.69-9.69v-116.29c-.02-5.15,2.03-10.09,5.68-13.71l96.91-96.91c7.57-7.56,19.83-7.56,27.4,0l96.91,96.91c3.65,3.63,5.7,8.57,5.68,13.71Z"></path><path class="cls-1" d="M300.96,273.82c.01,6.18-2.44,12.1-6.82,16.46l-35.85,36.38c-1.24,1.26-3.28,1.28-4.54.03-.01-.01-.02-.02-.03-.03l-35.85-36.38c-9.1-9.09-9.11-23.84-.02-32.94,9.09-9.1,23.84-9.11,32.94-.02l5.22,4.88,5.25-4.89c9.12-9.07,23.86-9.03,32.93.08,4.34,4.37,6.78,10.27,6.78,16.43Z"></path></svg>