<svg xmlns="http://www.w3.org/2000/svg" id="Camada_1" data-name="Camada 1" viewBox="0 0 512 512"><defs><style>      .cls-1 {        fill: #78b3a8;      }      .cls-2 {        fill: #fefdf3;      }    </style></defs><rect class="cls-1" x="0" width="512" height="512" rx="95.05" ry="95.05"></rect><path class="cls-2" d="M417.88,274.83l-44.04,44.04c-4.3,4.3-11.27,4.31-15.57,0h0s-22.02-22.03-22.02-22.03c-4.3-4.3-4.3-11.28,0-15.58s11.28-4.3,15.58,0l14.23,14.24,36.25-36.26c4.3-4.3,11.28-4.3,15.58,0,4.3,4.3,4.3,11.28,0,15.58ZM266.97,307.89c43.87-27.32,57.28-85.04,29.96-128.91-27.32-43.87-85.04-57.28-128.91-29.96-43.87,27.32-57.28,85.04-29.96,128.91,7.56,12.15,17.81,22.39,29.96,29.96-28.42,9.3-53.99,26.68-74.55,51.15-3.91,4.65-3.32,11.6,1.34,15.51,1.97,1.65,4.45,2.57,7.02,2.58h231.2c6.08,0,11.01-4.92,11.02-11,0-2.6-.91-5.11-2.58-7.1-20.57-24.47-46.14-41.85-74.49-51.15Z"></path></svg>