<svg xmlns="http://www.w3.org/2000/svg" id="Camada_1" data-name="Camada 1" viewBox="0 0 512 512"><defs><style>      .cls-1 {        fill: #78b3a8;      }      .cls-2 {        fill: #fefdf3;      }    </style></defs><rect class="cls-1" x="0" width="512" height="512" rx="95.05" ry="95.05"></rect><path class="cls-2" d="M258.26,172.24l-55,121.01c-.82,1.8-2.61,2.96-4.59,2.96h-70.96c-3.23.05-6.3-1.41-8.29-3.95-2.97-3.87-2.74-9.31.54-12.92l44.26-48.68-44.26-48.68c-3.29-3.61-3.52-9.06-.54-12.93,2-2.53,5.07-3.98,8.29-3.93h125.95c2.78,0,5.04,2.26,5.04,5.05,0,.72-.15,1.42-.45,2.08ZM391.59,137.69c-1.98-1.85-4.59-2.86-7.3-2.82h-80.39c-3.95,0-7.54,2.31-9.18,5.91l-53.66,118.05c-1.16,2.53-.04,5.52,2.49,6.68.66.3,1.37.45,2.09.45h72.85l-43.94,96.67c-2.44,5.01-.36,11.04,4.65,13.48,5.01,2.44,11.04.36,13.48-4.65.08-.16.15-.32.22-.49l100.84-221.86c1.77-3.89.9-8.47-2.17-11.43Z"></path></svg>